<mxfile host="app.diagrams.net" modified="2024-02-29T18:18:25.998Z" agent="Mozilla/5.0 (Windows NT 10.0; Win64; x64) AppleWebKit/537.36 (KHTML, like Gecko) Chrome/109.0.0.0 Safari/537.36" etag="OJZ9IoSEkz5OjN41C9Md" version="23.1.6" type="github">
  <diagram id="C5RBs43oDa-KdzZeNtuy" name="Page-1">
    <mxGraphModel dx="990" dy="502" grid="1" gridSize="10" guides="1" tooltips="1" connect="1" arrows="1" fold="1" page="1" pageScale="1" pageWidth="827" pageHeight="1169" math="0" shadow="0">
      <root>
        <mxCell id="WIyWlLk6GJQsqaUBKTNV-0" />
        <mxCell id="WIyWlLk6GJQsqaUBKTNV-1" parent="WIyWlLk6GJQsqaUBKTNV-0" />
        <mxCell id="s6uV9QeXuFk3Kz8Zfo_D-6" value="" style="edgeStyle=none;curved=1;rounded=0;orthogonalLoop=1;jettySize=auto;html=1;fontSize=12;startSize=8;endSize=8;" edge="1" parent="WIyWlLk6GJQsqaUBKTNV-1" source="WIyWlLk6GJQsqaUBKTNV-3" target="s6uV9QeXuFk3Kz8Zfo_D-5">
          <mxGeometry relative="1" as="geometry" />
        </mxCell>
        <mxCell id="WIyWlLk6GJQsqaUBKTNV-3" value="Generate a random word" style="rounded=1;whiteSpace=wrap;html=1;fontSize=12;glass=0;strokeWidth=1;shadow=0;" parent="WIyWlLk6GJQsqaUBKTNV-1" vertex="1">
          <mxGeometry x="330" y="40" width="120" height="50" as="geometry" />
        </mxCell>
        <mxCell id="s6uV9QeXuFk3Kz8Zfo_D-8" style="edgeStyle=none;curved=1;rounded=0;orthogonalLoop=1;jettySize=auto;html=1;fontSize=12;startSize=8;endSize=8;" edge="1" parent="WIyWlLk6GJQsqaUBKTNV-1" source="s6uV9QeXuFk3Kz8Zfo_D-5" target="s6uV9QeXuFk3Kz8Zfo_D-7">
          <mxGeometry relative="1" as="geometry" />
        </mxCell>
        <mxCell id="s6uV9QeXuFk3Kz8Zfo_D-5" value="Generate as many blanks as letters in word" style="whiteSpace=wrap;html=1;rounded=1;glass=0;strokeWidth=1;shadow=0;" vertex="1" parent="WIyWlLk6GJQsqaUBKTNV-1">
          <mxGeometry x="330" y="140" width="120" height="60" as="geometry" />
        </mxCell>
        <mxCell id="s6uV9QeXuFk3Kz8Zfo_D-11" value="" style="edgeStyle=none;curved=1;rounded=0;orthogonalLoop=1;jettySize=auto;html=1;fontSize=12;startSize=8;endSize=8;" edge="1" parent="WIyWlLk6GJQsqaUBKTNV-1" source="s6uV9QeXuFk3Kz8Zfo_D-7" target="s6uV9QeXuFk3Kz8Zfo_D-10">
          <mxGeometry relative="1" as="geometry" />
        </mxCell>
        <mxCell id="s6uV9QeXuFk3Kz8Zfo_D-7" value="User have to guess a letter" style="whiteSpace=wrap;html=1;rounded=1;glass=0;strokeWidth=1;shadow=0;" vertex="1" parent="WIyWlLk6GJQsqaUBKTNV-1">
          <mxGeometry x="330" y="250" width="120" height="60" as="geometry" />
        </mxCell>
        <mxCell id="s6uV9QeXuFk3Kz8Zfo_D-13" value="" style="edgeStyle=none;curved=1;rounded=0;orthogonalLoop=1;jettySize=auto;html=1;fontSize=12;startSize=8;endSize=8;" edge="1" parent="WIyWlLk6GJQsqaUBKTNV-1" source="s6uV9QeXuFk3Kz8Zfo_D-10" target="s6uV9QeXuFk3Kz8Zfo_D-12">
          <mxGeometry relative="1" as="geometry">
            <Array as="points">
              <mxPoint x="270" y="560" />
            </Array>
          </mxGeometry>
        </mxCell>
        <mxCell id="s6uV9QeXuFk3Kz8Zfo_D-19" value="" style="edgeStyle=none;curved=1;rounded=0;orthogonalLoop=1;jettySize=auto;html=1;fontSize=12;startSize=8;endSize=8;entryX=0.25;entryY=0;entryDx=0;entryDy=0;exitX=0.81;exitY=0.694;exitDx=0;exitDy=0;exitPerimeter=0;" edge="1" parent="WIyWlLk6GJQsqaUBKTNV-1" source="s6uV9QeXuFk3Kz8Zfo_D-10" target="s6uV9QeXuFk3Kz8Zfo_D-18">
          <mxGeometry relative="1" as="geometry">
            <Array as="points">
              <mxPoint x="470" y="590" />
              <mxPoint x="510" y="590" />
            </Array>
          </mxGeometry>
        </mxCell>
        <mxCell id="s6uV9QeXuFk3Kz8Zfo_D-10" value="Is the guessed letter in the word?&amp;nbsp;" style="rhombus;whiteSpace=wrap;html=1;rounded=1;glass=0;strokeWidth=1;shadow=0;" vertex="1" parent="WIyWlLk6GJQsqaUBKTNV-1">
          <mxGeometry x="290" y="415" width="200" height="170" as="geometry" />
        </mxCell>
        <mxCell id="s6uV9QeXuFk3Kz8Zfo_D-22" value="" style="edgeStyle=none;curved=1;rounded=0;orthogonalLoop=1;jettySize=auto;html=1;fontSize=12;startSize=8;endSize=8;" edge="1" parent="WIyWlLk6GJQsqaUBKTNV-1" source="s6uV9QeXuFk3Kz8Zfo_D-12" target="s6uV9QeXuFk3Kz8Zfo_D-21">
          <mxGeometry relative="1" as="geometry" />
        </mxCell>
        <mxCell id="s6uV9QeXuFk3Kz8Zfo_D-12" value="Replace the blank/blanks with the letter" style="whiteSpace=wrap;html=1;rounded=1;glass=0;strokeWidth=1;shadow=0;" vertex="1" parent="WIyWlLk6GJQsqaUBKTNV-1">
          <mxGeometry x="160" y="620" width="120" height="60" as="geometry" />
        </mxCell>
        <mxCell id="s6uV9QeXuFk3Kz8Zfo_D-14" value="Yes" style="text;html=1;align=center;verticalAlign=middle;resizable=0;points=[];autosize=1;strokeColor=none;fillColor=none;fontSize=16;" vertex="1" parent="WIyWlLk6GJQsqaUBKTNV-1">
          <mxGeometry x="250" y="530" width="50" height="30" as="geometry" />
        </mxCell>
        <mxCell id="s6uV9QeXuFk3Kz8Zfo_D-24" value="" style="edgeStyle=none;curved=1;rounded=0;orthogonalLoop=1;jettySize=auto;html=1;fontSize=12;startSize=8;endSize=8;" edge="1" parent="WIyWlLk6GJQsqaUBKTNV-1" source="s6uV9QeXuFk3Kz8Zfo_D-18" target="s6uV9QeXuFk3Kz8Zfo_D-23">
          <mxGeometry relative="1" as="geometry" />
        </mxCell>
        <mxCell id="s6uV9QeXuFk3Kz8Zfo_D-18" value="User lose a life" style="whiteSpace=wrap;html=1;rounded=1;glass=0;strokeWidth=1;shadow=0;" vertex="1" parent="WIyWlLk6GJQsqaUBKTNV-1">
          <mxGeometry x="490" y="620" width="120" height="60" as="geometry" />
        </mxCell>
        <mxCell id="s6uV9QeXuFk3Kz8Zfo_D-20" value="No" style="text;html=1;align=center;verticalAlign=middle;resizable=0;points=[];autosize=1;strokeColor=none;fillColor=none;fontSize=16;" vertex="1" parent="WIyWlLk6GJQsqaUBKTNV-1">
          <mxGeometry x="454" y="541" width="40" height="30" as="geometry" />
        </mxCell>
        <mxCell id="s6uV9QeXuFk3Kz8Zfo_D-27" style="edgeStyle=none;curved=1;rounded=0;orthogonalLoop=1;jettySize=auto;html=1;entryX=0;entryY=0.5;entryDx=0;entryDy=0;fontSize=12;startSize=8;endSize=8;exitX=0.06;exitY=0.463;exitDx=0;exitDy=0;exitPerimeter=0;" edge="1" parent="WIyWlLk6GJQsqaUBKTNV-1" source="s6uV9QeXuFk3Kz8Zfo_D-21" target="s6uV9QeXuFk3Kz8Zfo_D-10">
          <mxGeometry relative="1" as="geometry">
            <mxPoint x="150" y="850" as="sourcePoint" />
            <Array as="points">
              <mxPoint x="50" y="510" />
            </Array>
          </mxGeometry>
        </mxCell>
        <mxCell id="s6uV9QeXuFk3Kz8Zfo_D-31" value="" style="edgeStyle=none;curved=1;rounded=0;orthogonalLoop=1;jettySize=auto;html=1;fontSize=12;startSize=8;endSize=8;" edge="1" parent="WIyWlLk6GJQsqaUBKTNV-1" source="s6uV9QeXuFk3Kz8Zfo_D-21" target="s6uV9QeXuFk3Kz8Zfo_D-30">
          <mxGeometry relative="1" as="geometry" />
        </mxCell>
        <mxCell id="s6uV9QeXuFk3Kz8Zfo_D-21" value="Are all the blanks filled?" style="rhombus;whiteSpace=wrap;html=1;rounded=1;glass=0;strokeWidth=1;shadow=0;" vertex="1" parent="WIyWlLk6GJQsqaUBKTNV-1">
          <mxGeometry x="145" y="770" width="150" height="160" as="geometry" />
        </mxCell>
        <mxCell id="s6uV9QeXuFk3Kz8Zfo_D-25" style="edgeStyle=none;curved=1;rounded=0;orthogonalLoop=1;jettySize=auto;html=1;entryX=1;entryY=0.5;entryDx=0;entryDy=0;fontSize=12;startSize=8;endSize=8;" edge="1" parent="WIyWlLk6GJQsqaUBKTNV-1" target="s6uV9QeXuFk3Kz8Zfo_D-10">
          <mxGeometry relative="1" as="geometry">
            <mxPoint x="610" y="860" as="sourcePoint" />
            <Array as="points">
              <mxPoint x="730" y="520" />
            </Array>
          </mxGeometry>
        </mxCell>
        <mxCell id="s6uV9QeXuFk3Kz8Zfo_D-34" value="" style="edgeStyle=none;curved=1;rounded=0;orthogonalLoop=1;jettySize=auto;html=1;fontSize=12;startSize=8;endSize=8;" edge="1" parent="WIyWlLk6GJQsqaUBKTNV-1" source="s6uV9QeXuFk3Kz8Zfo_D-23" target="s6uV9QeXuFk3Kz8Zfo_D-33">
          <mxGeometry relative="1" as="geometry" />
        </mxCell>
        <mxCell id="s6uV9QeXuFk3Kz8Zfo_D-23" value="Does the user run&lt;br&gt;&amp;nbsp;out of lives?" style="rhombus;whiteSpace=wrap;html=1;rounded=1;glass=0;strokeWidth=1;shadow=0;" vertex="1" parent="WIyWlLk6GJQsqaUBKTNV-1">
          <mxGeometry x="480" y="780" width="140" height="150" as="geometry" />
        </mxCell>
        <mxCell id="s6uV9QeXuFk3Kz8Zfo_D-26" value="No" style="text;html=1;align=center;verticalAlign=middle;resizable=0;points=[];autosize=1;strokeColor=none;fillColor=none;fontSize=16;" vertex="1" parent="WIyWlLk6GJQsqaUBKTNV-1">
          <mxGeometry x="640" y="570" width="40" height="30" as="geometry" />
        </mxCell>
        <mxCell id="s6uV9QeXuFk3Kz8Zfo_D-28" value="No" style="text;html=1;align=center;verticalAlign=middle;resizable=0;points=[];autosize=1;strokeColor=none;fillColor=none;fontSize=16;" vertex="1" parent="WIyWlLk6GJQsqaUBKTNV-1">
          <mxGeometry x="100" y="570" width="40" height="30" as="geometry" />
        </mxCell>
        <mxCell id="s6uV9QeXuFk3Kz8Zfo_D-30" value="Congratulation!&lt;br&gt;You have discovered the word!" style="whiteSpace=wrap;html=1;rounded=1;glass=0;strokeWidth=1;shadow=0;" vertex="1" parent="WIyWlLk6GJQsqaUBKTNV-1">
          <mxGeometry x="160" y="1000" width="120" height="60" as="geometry" />
        </mxCell>
        <mxCell id="s6uV9QeXuFk3Kz8Zfo_D-33" value="Unfortunately you have run out of lives!&lt;br&gt;The word you had to guess was &#39; &#39;." style="whiteSpace=wrap;html=1;rounded=1;glass=0;strokeWidth=1;shadow=0;" vertex="1" parent="WIyWlLk6GJQsqaUBKTNV-1">
          <mxGeometry x="490" y="1000" width="120" height="60" as="geometry" />
        </mxCell>
        <mxCell id="s6uV9QeXuFk3Kz8Zfo_D-35" value="Yes" style="text;html=1;align=center;verticalAlign=middle;resizable=0;points=[];autosize=1;strokeColor=none;fillColor=none;fontSize=16;" vertex="1" parent="WIyWlLk6GJQsqaUBKTNV-1">
          <mxGeometry x="180" y="951" width="50" height="30" as="geometry" />
        </mxCell>
        <mxCell id="s6uV9QeXuFk3Kz8Zfo_D-36" value="Yes" style="text;html=1;align=center;verticalAlign=middle;resizable=0;points=[];autosize=1;strokeColor=none;fillColor=none;fontSize=16;" vertex="1" parent="WIyWlLk6GJQsqaUBKTNV-1">
          <mxGeometry x="510" y="951" width="50" height="30" as="geometry" />
        </mxCell>
      </root>
    </mxGraphModel>
  </diagram>
</mxfile>
